<?xml version="1.0" encoding="UTF-8" standalone="no"?>
<!-- Created with Inkscape (http://www.inkscape.org/) -->

<svg
   xmlns:dc="http://purl.org/dc/elements/1.1/"
   xmlns:cc="http://creativecommons.org/ns#"
   xmlns:rdf="http://www.w3.org/1999/02/22-rdf-syntax-ns#"
   xmlns:svg="http://www.w3.org/2000/svg"
   xmlns="http://www.w3.org/2000/svg"
   xmlns:sodipodi="http://sodipodi.sourceforge.net/DTD/sodipodi-0.dtd"
   xmlns:inkscape="http://www.inkscape.org/namespaces/inkscape"
   width="744.09448819"
   height="1052.3622047"
   id="svg2"
   version="1.1"
   inkscape:version="0.48.5 r10040"
   sodipodi:docname="logo.svg">
  <defs
     id="defs4" />
  <sodipodi:namedview
     id="base"
     pagecolor="#ffffff"
     bordercolor="#666666"
     borderopacity="1.0"
     inkscape:pageopacity="0.0"
     inkscape:pageshadow="2"
     inkscape:zoom="2.8"
     inkscape:cx="381.79576"
     inkscape:cy="531.60933"
     inkscape:document-units="px"
     inkscape:current-layer="layer1"
     showgrid="false"
     inkscape:window-width="1443"
     inkscape:window-height="791"
     inkscape:window-x="154"
     inkscape:window-y="154"
     inkscape:window-maximized="0" />
  <metadata
     id="metadata7">
    <rdf:RDF>
      <cc:Work
         rdf:about="">
        <dc:format>image/svg+xml</dc:format>
        <dc:type
           rdf:resource="http://purl.org/dc/dcmitype/StillImage" />
        <dc:title></dc:title>
      </cc:Work>
    </rdf:RDF>
  </metadata>
  <g
     inkscape:label="Layer 1"
     inkscape:groupmode="layer"
     id="layer1">
    <g
       style="fill-rule:evenodd"
       id="g3025"
       transform="matrix(1.25,0,0,1.25,-151.18125,-147.95282)">
      <g
         id="g2987">
        <g
           id="g2989">
          <path
             id="path2991"
             d="m 0,246.614 841.89,0 0,595.276 -841.89,0 0,-595.276 z"
             style="fill:none;stroke:none"
             inkscape:connector-curvature="0" />
          <g
             id="g2993">
            <g
               id="g2995">
              <path
                 id="path2997"
                 d="m 585.603,531.675 -0.325,-0.286 c -0.717,-0.63 -1.777,-1.082 -2.673,-1.4 -1.175,-0.418 -2.395,-0.635 -3.645,-0.635 -2.512,0 -4.645,0.81 -6.261,2.723 -1.779,2.108 -2.329,4.84 -2.329,7.514 0,2.547 0.535,5.172 2.32,7.12 1.723,1.89 4.12,2.521 6.641,2.521 2.472,0 4.71,-1.101 6.63,-2.55 l 0.384,-0.29 2.275,4.89 -0.272,0.178 c -3.033,1.993 -6.667,2.667 -10.267,2.667 -3.83,0 -7.166,-1.235 -9.84,-3.961 -2.853,-2.889 -3.894,-6.621 -3.894,-10.575 0,-4.139 1.079,-8.078 4.105,-11.075 2.974,-2.957 6.832,-4.083 11.006,-4.083 1.709,0 3.394,0.371 4.99,0.957 2.484,0.838 2.791,4.547 1.155,6.285 z"
                 style="fill:#7d868a;stroke:none"
                 inkscape:connector-curvature="0" />
              <path
                 id="path2999"
                 d="m 553.579,539.846 c -0.622,-0.125 -1.247,-0.245 -1.873,-0.348 -0.337,-0.055 -0.769,-0.133 -1.111,-0.133 -2.176,0 -4.286,0.493 -5.994,1.867 -1.363,1.11 -2.27,2.494 -2.27,4.265 0,3.025 1.99,3.993 4.841,3.993 2.642,0 4.739,-1.418 6.407,-3.323 l 0,-6.321 z m -0.009,-4.352 c -0.136,-3.648 -1.771,-5.882 -5.819,-5.882 -2.579,0 -5.106,0.601 -6.994,2.414 l -0.375,0.361 -2.503,-4.838 0.231,-0.193 c 1.096,-0.914 2.635,-1.557 3.981,-2.023 1.655,-0.561 3.38,-0.9 5.135,-0.9 3.174,0 6.738,0.547 9.123,2.787 2.448,2.286 2.99,6.011 2.99,9.164 l 0,9.975 c 0,1.716 0.369,3.651 2.03,4.555 l 0.198,0.108 0,3.051 -0.385,0 c -1.56,0 -3.646,-0.149 -4.977,-1.031 -0.896,-0.581 -1.536,-1.351 -1.95,-2.287 -2.363,2.5 -5.64,3.372 -9.103,3.372 -2.376,0 -4.405,-0.859 -6.078,-2.509 -1.733,-1.7 -2.557,-3.774 -2.557,-6.174 0,-3.1 1.448,-5.551 3.904,-7.455 2.842,-2.202 6.317,-2.995 9.884,-2.995 1.094,0 2.206,0.207 3.265,0.5 z"
                 style="fill:#7d868a;stroke:none"
                 inkscape:connector-curvature="0" />
              <path
                 id="path3001"
                 d="m 526.192,529.665 -6.847,0 c -0.1,3.542 -0.465,7.098 -1.221,10.564 -0.62,2.844 -1.535,5.78 -2.984,8.331 -0.977,1.699 -2.357,3.529 -4.217,4.361 -1.679,0.741 -3.555,0.992 -5.384,0.992 l -0.385,0 0,-5.285 0.385,0 c 3.83,0 5.507,-3.846 6.357,-6.941 1.049,-3.847 1.58,-7.807 1.918,-11.776 0.365,-4.278 3.739,-4.936 5.529,-4.936 l 12.664,0 0,28.628 -5.815,0 0,-23.938 z"
                 style="fill:#7d868a;stroke:none"
                 inkscape:connector-curvature="0" />
              <path
                 id="path3003"
                 d="m 496.087,529.896 -11.619,0 0,23.707 c -3.791,-0.198 -5.832,-2.664 -5.832,-5.253 l 0,-18.442 c 0,-2.539 1.878,-4.933 5.92,-4.933 l 17.346,0 0,28.628 -5.815,0 0,-23.707 z"
                 style="fill:#7d868a;stroke:none"
                 inkscape:connector-curvature="0" />
              <path
                 id="path3005"
                 d="m 466.428,535.158 -17.173,19.2 c -0.372,0.415 -1.692,0.553 -1.692,0 l 0,-24.569 c 0,-2.493 3.03,-4.817 5.833,-4.814 l 0,18.451 17.136,-19.206 c 0.374,-0.419 1.701,-0.556 1.701,0 l 0,24.015 0,5.368 -5.805,0 0,-18.445 z"
                 style="fill:#7d868a;stroke:none"
                 inkscape:connector-curvature="0" />
              <path
                 id="path3007"
                 d="m 429.926,549.286 c 2.109,0 3.854,-0.71 5.114,-2.395 1.411,-1.898 1.827,-4.324 1.827,-6.625 0,-2.239 -0.345,-4.84 -1.793,-6.661 -1.273,-1.61 -3.05,-2.226 -5.094,-2.226 -2.272,0 -4.117,0.84 -5.552,2.57 -1.514,1.827 -2.159,3.973 -2.159,6.317 0,2.365 0.535,4.674 2.086,6.537 1.439,1.718 3.315,2.483 5.571,2.483 z m -8.829,-17.719 c 1.001,-1.335 2.214,-2.486 3.684,-3.358 1.825,-1.086 3.806,-1.644 5.942,-1.644 3.493,0 6.642,1.012 9.016,3.588 2.444,2.653 3.278,6.087 3.278,9.589 0,3.827 -0.956,7.475 -3.573,10.393 -2.547,2.84 -5.943,3.992 -9.754,3.992 -4.068,0 -7.499,-1.405 -10.004,-4.588 -2.737,-3.478 -3.567,-7.942 -3.567,-12.24 0,-3.012 0.23,-6.092 0.906,-9.037 0.525,-2.252 1.338,-4.568 2.686,-6.482 1.198,-1.694 2.731,-3.059 4.553,-4.092 2.177,-1.227 4.732,-2.012 7.17,-2.563 l 4.875,-1.089 c 2.783,-0.622 5.079,1.791 5.863,4.294 l -0.382,0.082 c -2.669,0.567 -5.336,1.138 -7.999,1.73 -1.395,0.31 -2.81,0.616 -4.192,0.975 -1.492,0.387 -2.889,1.001 -4.169,1.85 -1.353,0.881 -2.303,2.132 -2.969,3.572 -0.697,1.506 -1.104,3.306 -1.364,5.028 z"
                 style="fill:#7d868a;stroke:none"
                 inkscape:connector-curvature="0" />
              <path
                 id="path3009"
                 d="m 399.858,549.33 c 2.239,0 3.969,-0.892 5.214,-2.72 1.478,-2.155 1.909,-4.861 1.909,-7.41 0,-4.884 -1.213,-9.952 -7.123,-9.952 -2.223,0 -3.979,0.861 -5.264,2.647 -1.523,2.102 -1.967,4.779 -1.967,7.305 0,4.955 1.228,10.13 7.231,10.13 z m 0,-24.897 c 3.805,0 7.249,1.108 9.758,3.997 2.612,3.008 3.442,6.908 3.442,10.77 0,3.938 -0.857,7.928 -3.593,10.946 -2.534,2.783 -5.831,3.981 -9.607,3.981 -3.825,0 -7.247,-1.146 -9.765,-4.041 -2.646,-3.041 -3.489,-6.98 -3.489,-10.886 0,-3.923 0.978,-7.663 3.655,-10.659 2.527,-2.829 5.783,-4.108 9.599,-4.108 z"
                 style="fill:#7d868a;stroke:none"
                 inkscape:connector-curvature="0" />
              <path
                 id="path3011"
                 d="m 375.904,530.78 -8.102,23.88 c -0.198,0.584 -1.681,0.582 -1.884,0 l -8.34,-23.893 -4.304,23.369 c -3.095,0 -5.285,-2.86 -4.839,-5.154 l 5.688,-29.234 c 0.27,-1.385 1.866,-4.497 3.755,-4.49 l 8.962,26.935 8.277,-26.935 c 2.075,0.01 3.522,2.604 3.925,4.551 l 6.037,29.178 c 0.47,2.272 -1.235,5.128 -4.77,5.149 l -4.405,-23.356 z"
                 style="fill:#7d868a;stroke:none"
                 inkscape:connector-curvature="0" />
            </g>
            <path
               id="path3013"
               d="m 358.175,572.52 -1.382,-7.844 -2.545,8.011 -0.398,0 -2.506,-8.011 -1.351,7.844 -1.499,0 2.239,-12.142 0.688,0 2.67,8.85 2.656,-8.85 0.675,0 2.252,12.142 -1.499,0 z m 6.21,-9.056 c 1.203,0 2.139,0.41 2.801,1.231 0.662,0.821 0.992,1.939 0.992,3.355 0,1.455 -0.346,2.59 -1.035,3.408 -0.691,0.818 -1.61,1.229 -2.758,1.229 -1.198,0 -2.133,-0.416 -2.803,-1.246 -0.671,-0.829 -1.006,-1.959 -1.006,-3.391 0,-1.367 0.352,-2.471 1.054,-3.318 0.702,-0.846 1.619,-1.268 2.755,-1.268 z m 0,7.935 c 0.703,0 1.249,-0.306 1.638,-0.92 0.391,-0.614 0.584,-1.424 0.584,-2.429 0,-2.194 -0.739,-3.292 -2.222,-3.292 -0.7,0 -1.251,0.297 -1.651,0.894 -0.402,0.598 -0.603,1.396 -0.603,2.398 0,2.233 0.753,3.349 2.254,3.349 z m 6.111,-5.282 c 0.357,-0.64 0.796,-1.13 1.324,-1.467 0.525,-0.337 1.09,-0.506 1.699,-0.506 1.094,0 1.954,0.367 2.584,1.104 0.627,0.733 0.941,1.726 0.941,2.975 0,1.333 -0.344,2.409 -1.03,3.232 -0.683,0.821 -1.619,1.232 -2.801,1.232 -1.225,0 -2.181,-0.473 -2.87,-1.416 -0.689,-0.942 -1.032,-2.219 -1.032,-3.827 0,-1.073 0.089,-2.024 0.266,-2.853 0.179,-0.83 0.436,-1.504 0.777,-2.024 0.34,-0.518 0.777,-0.943 1.311,-1.269 0.535,-0.325 1.23,-0.594 2.09,-0.803 l 2.693,-0.648 0.322,1.46 c -1.954,0.447 -3.157,0.736 -3.613,0.864 -0.456,0.127 -0.879,0.328 -1.268,0.606 -0.391,0.274 -0.696,0.67 -0.919,1.188 -0.222,0.518 -0.38,1.234 -0.474,2.152 z m 2.787,5.268 c 0.697,0 1.23,-0.272 1.606,-0.812 0.375,-0.545 0.563,-1.272 0.563,-2.184 0,-0.961 -0.186,-1.695 -0.556,-2.196 -0.369,-0.504 -0.9,-0.756 -1.597,-0.756 -0.713,0 -1.289,0.289 -1.731,0.864 -0.442,0.574 -0.665,1.271 -0.665,2.088 0,0.887 0.214,1.605 0.643,2.161 0.432,0.554 1.008,0.835 1.737,0.835 z m 12.407,1.135 -1.49,0 0,-6.078 -5.248,6.319 -0.335,0 0,-9.124 1.499,0 0,6.081 5.236,-6.322 0.338,0 0,9.124 z m 9.103,0 -1.494,0 0,-7.629 -2.251,0 c -0.027,1.249 -0.147,2.403 -0.362,3.461 -0.214,1.06 -0.507,1.931 -0.871,2.622 -0.367,0.688 -0.766,1.132 -1.195,1.339 -0.429,0.204 -0.944,0.306 -1.546,0.306 l 0,-1.444 c 0.937,0 1.599,-0.767 1.99,-2.301 0.389,-1.535 0.585,-3.004 0.585,-4.408 l 0,-0.829 5.144,0 0,8.883 z m 3.555,-5.591 c 0.718,-0.088 1.303,-0.13 1.753,-0.13 1.073,0 1.891,0.243 2.453,0.736 0.563,0.492 0.844,1.22 0.844,2.183 0,0.75 -0.273,1.406 -0.817,1.964 -0.544,0.558 -1.387,0.838 -2.529,0.838 l -3.186,0 0,-8.883 1.482,0 0,3.292 z m 0,4.297 c 0.367,0.034 0.957,0.051 1.766,0.051 0.556,0 0.993,-0.139 1.309,-0.41 0.316,-0.275 0.475,-0.669 0.475,-1.183 0,-1.102 -0.62,-1.651 -1.861,-1.651 -0.429,0 -0.992,0.048 -1.689,0.141 l 0,3.052 z m 13.522,1.294 -1.5,0 0,-4.006 -3.87,0 0,4.006 -1.499,0 0,-8.883 1.499,0 0,3.566 3.87,0 0,-3.566 1.5,0 0,8.883 z m 11.016,0 -1.468,0 0,-8.883 1.468,0 0,8.883 z m -7.429,-5.622 c 0.431,-0.068 0.905,-0.099 1.431,-0.099 1.078,0 1.9,0.243 2.463,0.736 0.565,0.492 0.85,1.22 0.85,2.183 0,0.48 -0.129,0.948 -0.387,1.404 -0.254,0.456 -0.629,0.803 -1.122,1.041 -0.49,0.238 -1.104,0.357 -1.836,0.357 l -2.866,0 0,-8.883 1.467,0 0,3.261 z m 0,4.345 c 0.356,0.037 0.833,0.057 1.431,0.057 0.555,0 0.997,-0.139 1.329,-0.422 0.333,-0.283 0.499,-0.68 0.499,-1.194 0,-0.558 -0.174,-0.978 -0.523,-1.252 -0.348,-0.277 -0.809,-0.416 -1.385,-0.416 -0.314,0 -0.764,0.037 -1.351,0.108 l 0,3.119 z m 16.622,-3.004 -6.063,0 c 0,0.655 0.107,1.207 0.317,1.66 0.209,0.452 0.512,0.812 0.905,1.075 0.395,0.261 0.874,0.394 1.435,0.394 0.841,0 1.554,-0.269 2.136,-0.805 l 0.611,1.277 c -0.392,0.326 -0.826,0.549 -1.295,0.669 -0.471,0.118 -1.054,0.178 -1.745,0.178 -1.139,0 -2.079,-0.414 -2.814,-1.24 -0.734,-0.827 -1.104,-1.914 -1.104,-3.255 0,-1.41 0.386,-2.551 1.157,-3.423 0.775,-0.869 1.7,-1.305 2.777,-1.305 1.164,0 2.088,0.342 2.78,1.034 0.691,0.687 1.037,1.61 1.037,2.771 0,0.235 -0.046,0.558 -0.134,0.97 z m -3.619,-3.447 c -0.656,0 -1.205,0.223 -1.653,0.674 -0.448,0.449 -0.694,0.99 -0.742,1.621 l 4.647,0 c 0,-0.673 -0.204,-1.225 -0.611,-1.653 -0.407,-0.43 -0.957,-0.642 -1.641,-0.642 z m 16.843,7.728 -1.493,0 0,-7.555 -3.666,0 0,7.555 -1.499,0 0,-8.883 6.658,0 0,8.883 z m 9.099,0 -1.493,0 0,-7.629 -2.251,0 c -0.027,1.249 -0.147,2.403 -0.362,3.461 -0.214,1.06 -0.507,1.931 -0.872,2.622 -0.366,0.688 -0.766,1.132 -1.195,1.339 -0.428,0.204 -0.943,0.306 -1.546,0.306 l 0,-1.444 c 0.938,0 1.6,-0.767 1.991,-2.301 0.389,-1.535 0.585,-3.004 0.585,-4.408 l 0,-0.829 5.143,0 0,8.883 z m 6.737,-1.02 c -0.608,0.791 -1.519,1.187 -2.734,1.187 -0.664,0 -1.237,-0.255 -1.717,-0.765 -0.483,-0.509 -0.724,-1.134 -0.724,-1.882 0,-0.901 0.37,-1.662 1.112,-2.281 0.74,-0.617 1.691,-0.929 2.854,-0.929 0.32,0 0.678,0.068 1.083,0.2 0,-1.437 -0.614,-2.156 -1.838,-2.156 -0.914,0 -1.632,0.269 -2.149,0.804 l -0.63,-1.311 c 0.251,-0.226 0.632,-0.433 1.142,-0.622 0.511,-0.188 1.004,-0.281 1.481,-0.281 1.182,0 2.056,0.283 2.622,0.855 0.565,0.569 0.849,1.514 0.849,2.834 l 0,3.179 c 0,0.778 0.22,1.299 0.659,1.556 l 0,0.782 c -0.648,0 -1.12,-0.102 -1.409,-0.308 -0.293,-0.204 -0.491,-0.49 -0.601,-0.862 z m -0.126,-3.342 c -0.533,-0.116 -0.865,-0.176 -0.997,-0.176 -0.752,0 -1.37,0.21 -1.847,0.623 -0.474,0.416 -0.712,0.9 -0.712,1.452 0,0.928 0.515,1.393 1.546,1.393 0.738,0 1.408,-0.38 2.01,-1.136 l 0,-2.156 z m 9.454,-3.193 -2.41,0 0,7.555 -1.492,0 0,-7.555 -2.418,0 0,-1.328 6.32,0 0,1.328 z m 8.621,3.274 -6.062,0 c 0,0.655 0.107,1.207 0.317,1.66 0.209,0.452 0.511,0.812 0.905,1.075 0.394,0.261 0.874,0.394 1.434,0.394 0.842,0 1.555,-0.269 2.136,-0.805 l 0.611,1.277 c -0.391,0.326 -0.826,0.549 -1.294,0.669 -0.472,0.118 -1.054,0.178 -1.745,0.178 -1.14,0 -2.08,-0.414 -2.814,-1.24 -0.735,-0.827 -1.105,-1.914 -1.105,-3.255 0,-1.41 0.387,-2.551 1.158,-3.423 0.775,-0.869 1.7,-1.305 2.776,-1.305 1.164,0 2.089,0.342 2.781,1.034 0.691,0.687 1.036,1.61 1.036,2.771 0,0.235 -0.045,0.558 -0.134,0.97 z m -3.618,-3.447 c -0.656,0 -1.206,0.223 -1.653,0.674 -0.448,0.449 -0.695,0.99 -0.742,1.621 l 4.647,0 c 0,-0.673 -0.204,-1.225 -0.611,-1.653 -0.408,-0.43 -0.957,-0.642 -1.641,-0.642 z m 1.71,-4.487 c 0.226,0 0.429,0.088 0.609,0.263 0.182,0.179 0.27,0.402 0.27,0.674 0,0.258 -0.083,0.481 -0.255,0.662 -0.169,0.181 -0.377,0.275 -0.624,0.275 -0.26,0 -0.474,-0.096 -0.64,-0.286 -0.164,-0.193 -0.247,-0.408 -0.247,-0.651 0,-0.255 0.086,-0.476 0.26,-0.66 0.171,-0.186 0.381,-0.277 0.627,-0.277 z m -3.141,0 c 0.246,0 0.456,0.091 0.63,0.272 0.172,0.184 0.257,0.404 0.257,0.665 0,0.249 -0.08,0.467 -0.246,0.654 -0.164,0.187 -0.378,0.283 -0.641,0.283 -0.254,0 -0.467,-0.096 -0.629,-0.286 -0.167,-0.193 -0.25,-0.408 -0.25,-0.651 0,-0.3 0.096,-0.529 0.287,-0.694 0.19,-0.163 0.388,-0.243 0.592,-0.243 z m 16.915,12.265 c -0.147,0.021 -0.322,0.032 -0.529,0.032 -0.924,0 -1.458,-0.512 -1.592,-1.543 -0.125,-0.929 -0.377,-1.59 -0.755,-1.984 -0.375,-0.396 -0.927,-0.595 -1.656,-0.595 l 0,4.04 -1.413,0 0,-4.04 c -0.774,0 -1.354,0.19 -1.739,0.569 -0.386,0.38 -0.644,1.05 -0.775,2.01 -0.139,1.031 -0.673,1.543 -1.592,1.543 -0.196,0 -0.365,-0.011 -0.512,-0.032 l 0,-1.378 c 0.099,0.023 0.212,0.034 0.338,0.034 0.268,0 0.426,-0.164 0.48,-0.49 0.275,-1.571 0.975,-2.536 2.096,-2.901 -0.555,-0.144 -0.994,-0.402 -1.322,-0.773 -0.33,-0.371 -0.557,-0.917 -0.688,-1.642 -0.057,-0.326 -0.204,-0.489 -0.44,-0.489 -0.209,0 -0.327,0.005 -0.354,0.016 l 0,-1.359 c 0.153,-0.022 0.33,-0.034 0.533,-0.034 0.877,0 1.394,0.504 1.558,1.509 0.134,0.802 0.388,1.359 0.755,1.673 0.37,0.312 0.925,0.467 1.662,0.467 l 0,-3.566 1.413,0 0,3.566 c 0.724,0 1.268,-0.166 1.634,-0.498 0.365,-0.331 0.609,-0.872 0.73,-1.624 0.168,-1.016 0.683,-1.527 1.546,-1.527 0.193,0 0.364,0.012 0.512,0.034 l 0,1.359 c -0.027,-0.011 -0.15,-0.016 -0.37,-0.016 -0.225,0 -0.37,0.17 -0.432,0.506 -0.225,1.26 -0.868,2.061 -1.932,2.398 0.561,0.209 1.005,0.538 1.332,0.982 0.327,0.445 0.563,1.09 0.71,1.937 0.051,0.313 0.206,0.472 0.464,0.472 0.145,0 0.258,-0.011 0.338,-0.034 l 0,1.378 z m 8.573,-0.05 -1.5,0 0,-4.006 -3.87,0 0,4.006 -1.499,0 0,-8.883 1.499,0 0,3.566 3.87,0 0,-3.566 1.5,0 0,8.883 z m 11.017,0 -1.468,0 0,-8.883 1.468,0 0,8.883 z m -7.43,-5.622 c 0.431,-0.068 0.906,-0.099 1.431,-0.099 1.078,0 1.9,0.243 2.464,0.736 0.565,0.492 0.849,1.22 0.849,2.183 0,0.48 -0.129,0.948 -0.386,1.404 -0.254,0.456 -0.63,0.803 -1.123,1.041 -0.49,0.238 -1.104,0.357 -1.836,0.357 l -2.865,0 0,-8.883 1.466,0 0,3.261 z m 0,4.345 c 0.356,0.037 0.833,0.057 1.431,0.057 0.555,0 0.997,-0.139 1.33,-0.422 0.332,-0.283 0.498,-0.68 0.498,-1.194 0,-0.558 -0.174,-0.978 -0.523,-1.252 -0.348,-0.277 -0.808,-0.416 -1.385,-0.416 -0.314,0 -0.764,0.037 -1.351,0.108 l 0,3.119 z m 16.623,-3.004 -6.063,0 c 0,0.655 0.107,1.207 0.317,1.66 0.209,0.452 0.512,0.812 0.905,1.075 0.395,0.261 0.874,0.394 1.435,0.394 0.842,0 1.554,-0.269 2.136,-0.805 l 0.611,1.277 c -0.392,0.326 -0.826,0.549 -1.294,0.669 -0.472,0.118 -1.055,0.178 -1.746,0.178 -1.139,0 -2.079,-0.414 -2.814,-1.24 -0.734,-0.827 -1.104,-1.914 -1.104,-3.255 0,-1.41 0.386,-2.551 1.157,-3.423 0.775,-0.869 1.7,-1.305 2.777,-1.305 1.164,0 2.088,0.342 2.78,1.034 0.691,0.687 1.037,1.61 1.037,2.771 0,0.235 -0.045,0.558 -0.134,0.97 z m -3.619,-3.447 c -0.656,0 -1.205,0.223 -1.652,0.674 -0.449,0.449 -0.695,0.99 -0.743,1.621 l 4.647,0 c 0,-0.673 -0.203,-1.225 -0.611,-1.653 -0.407,-0.43 -0.956,-0.642 -1.641,-0.642 z m 16.538,-0.425 -0.724,1.104 c -0.183,-0.173 -0.458,-0.328 -0.828,-0.47 -0.37,-0.141 -0.743,-0.209 -1.118,-0.209 -0.817,0 -1.463,0.302 -1.94,0.911 -0.477,0.609 -0.716,1.432 -0.716,2.471 0,1.006 0.239,1.79 0.716,2.35 0.477,0.564 1.16,0.844 2.05,0.844 0.67,0 1.345,-0.28 2.031,-0.839 l 0.574,1.328 c -0.78,0.553 -1.771,0.83 -2.975,0.83 -1.141,0 -2.085,-0.408 -2.83,-1.226 -0.748,-0.815 -1.12,-1.911 -1.12,-3.287 0,-1.454 0.393,-2.603 1.182,-3.445 0.787,-0.843 1.846,-1.265 3.175,-1.265 0.456,0 0.936,0.1 1.437,0.297 0.504,0.202 0.865,0.402 1.086,0.606 z m 8.712,3.872 -6.062,0 c 0,0.655 0.107,1.207 0.317,1.66 0.209,0.452 0.512,0.812 0.905,1.075 0.394,0.261 0.874,0.394 1.434,0.394 0.842,0 1.555,-0.269 2.137,-0.805 l 0.611,1.277 c -0.392,0.326 -0.827,0.549 -1.295,0.669 -0.472,0.118 -1.054,0.178 -1.745,0.178 -1.139,0 -2.079,-0.414 -2.814,-1.24 -0.735,-0.827 -1.105,-1.914 -1.105,-3.255 0,-1.41 0.387,-2.551 1.158,-3.423 0.775,-0.869 1.7,-1.305 2.777,-1.305 1.163,0 2.088,0.342 2.78,1.034 0.691,0.687 1.036,1.61 1.036,2.771 0,0.235 -0.045,0.558 -0.134,0.97 z m -3.618,-3.447 c -0.656,0 -1.205,0.223 -1.653,0.674 -0.448,0.449 -0.694,0.99 -0.742,1.621 l 4.647,0 c 0,-0.673 -0.204,-1.225 -0.611,-1.653 -0.407,-0.43 -0.957,-0.642 -1.641,-0.642 z m 6.838,7.238 0,3.971 -1.499,0 0,-12.364 1.499,0 0,0.73 c 0.565,-0.603 1.246,-0.903 2.042,-0.903 1.187,0 2.114,0.397 2.779,1.189 0.665,0.793 0.997,1.944 0.997,3.454 0,1.362 -0.337,2.466 -1.007,3.309 -0.673,0.846 -1.641,1.271 -2.903,1.271 -0.345,0 -0.721,-0.068 -1.125,-0.201 -0.408,-0.133 -0.668,-0.283 -0.783,-0.456 z m 0,-6.477 0,5.183 c 0.115,0.162 0.319,0.306 0.614,0.436 0.291,0.131 0.579,0.196 0.862,0.196 1.853,0 2.78,-1.113 2.78,-3.335 0,-1.15 -0.225,-1.979 -0.676,-2.483 -0.45,-0.506 -1.152,-0.758 -2.104,-0.758 -0.203,0 -0.463,0.082 -0.777,0.246 -0.313,0.167 -0.547,0.34 -0.699,0.515 z m 12.479,2.197 c 1.072,0.365 1.608,1.113 1.608,2.239 0,0.731 -0.266,1.337 -0.802,1.815 -0.532,0.478 -1.334,0.716 -2.401,0.716 l -3.423,0 0,-8.866 c 1.182,-0.066 2.277,-0.1 3.281,-0.1 0.949,0 1.683,0.205 2.206,0.609 0.525,0.408 0.786,0.999 0.786,1.781 0,0.391 -0.114,0.75 -0.338,1.078 -0.226,0.326 -0.531,0.569 -0.917,0.728 z m -3.605,-0.495 c 0.084,0.011 0.686,0.014 1.806,0.014 1.062,0 1.592,-0.436 1.592,-1.308 0,-0.377 -0.123,-0.671 -0.372,-0.883 -0.249,-0.215 -0.597,-0.32 -1.048,-0.32 -0.863,0 -1.522,0.023 -1.978,0.065 l 0,2.432 z m 0,4.005 c 0.593,0.037 1.204,0.056 1.836,0.056 1.251,0 1.879,-0.48 1.879,-1.443 0,-0.464 -0.164,-0.821 -0.488,-1.073 -0.324,-0.252 -0.798,-0.377 -1.421,-0.377 -0.801,0 -1.404,0.015 -1.806,0.041 l 0,2.796 z m 13.961,1.26 -1.491,0 0,-6.078 -5.247,6.319 -0.335,0 0,-9.124 1.499,0 0,6.081 5.236,-6.322 0.338,0 0,9.124 z m 8.475,-8.153 -0.723,1.104 c -0.183,-0.173 -0.459,-0.328 -0.829,-0.47 -0.37,-0.141 -0.742,-0.209 -1.118,-0.209 -0.817,0 -1.463,0.302 -1.94,0.911 -0.477,0.609 -0.715,1.432 -0.715,2.471 0,1.006 0.238,1.79 0.715,2.35 0.477,0.564 1.16,0.844 2.05,0.844 0.67,0 1.346,-0.28 2.032,-0.839 l 0.573,1.328 c -0.78,0.553 -1.771,0.83 -2.975,0.83 -1.141,0 -2.085,-0.408 -2.83,-1.226 -0.747,-0.815 -1.12,-1.911 -1.12,-3.287 0,-1.454 0.394,-2.603 1.182,-3.445 0.788,-0.843 1.846,-1.265 3.175,-1.265 0.457,0 0.936,0.1 1.438,0.297 0.503,0.202 0.865,0.402 1.085,0.606 z m 10.536,8.153 -1.469,0 0,-8.883 1.469,0 0,8.883 z m -7.43,-5.622 c 0.431,-0.068 0.906,-0.099 1.431,-0.099 1.078,0 1.901,0.243 2.464,0.736 0.565,0.492 0.849,1.22 0.849,2.183 0,0.48 -0.129,0.948 -0.386,1.404 -0.254,0.456 -0.63,0.803 -1.123,1.041 -0.49,0.238 -1.104,0.357 -1.836,0.357 l -2.865,0 0,-8.883 1.466,0 0,3.261 z m 0,4.345 c 0.356,0.037 0.833,0.057 1.431,0.057 0.555,0 0.997,-0.139 1.33,-0.422 0.332,-0.283 0.498,-0.68 0.498,-1.194 0,-0.558 -0.174,-0.978 -0.523,-1.252 -0.348,-0.277 -0.808,-0.416 -1.385,-0.416 -0.314,0 -0.764,0.037 -1.351,0.108 l 0,3.119 z"
               style="fill:#7d868a;stroke:none"
               inkscape:connector-curvature="0" />
            <path
               id="path3015"
               d="m 337.843,506.159 1.897,0 0,76.185 -1.897,0 0,-76.185 z"
               style="fill:#7d868a;stroke:none"
               inkscape:connector-curvature="0" />
            <path
               id="path3017"
               d="m 319.203,506.177 0.045,0 c 6.479,11.204 10.19,24.211 10.19,38.083 0,13.873 -3.711,26.88 -10.19,38.084 l -0.045,0 c -28.17,0 -52.769,-15.319 -65.933,-38.084 13.164,-22.764 37.763,-38.083 65.933,-38.083 z"
               style="fill:#005379;stroke:none"
               inkscape:connector-curvature="0" />
          </g>
        </g>
      </g>
    </g>
  </g>
</svg>
