<?xml version="1.0" encoding="UTF-8" standalone="no"?>
<!-- Created with Inkscape (http://www.inkscape.org/) -->

<svg
   xmlns:dc="http://purl.org/dc/elements/1.1/"
   xmlns:cc="http://creativecommons.org/ns#"
   xmlns:rdf="http://www.w3.org/1999/02/22-rdf-syntax-ns#"
   xmlns:svg="http://www.w3.org/2000/svg"
   xmlns="http://www.w3.org/2000/svg"
   xmlns:sodipodi="http://sodipodi.sourceforge.net/DTD/sodipodi-0.dtd"
   xmlns:inkscape="http://www.inkscape.org/namespaces/inkscape"
   width="744.09448819"
   height="1052.3622047"
   id="svg3875"
   version="1.1"
   inkscape:version="0.48.5 r10040"
   sodipodi:docname="logo.icon.text.svg"
   inkscape:export-filename="C:\Users\bushuev\Documents\Programs\nginx-1.7.4\html\mobiplas\css\img\logo.icon.text.png"
   inkscape:export-xdpi="90"
   inkscape:export-ydpi="90">
  <defs
     id="defs3877" />
  <sodipodi:namedview
     id="base"
     pagecolor="#ffffff"
     bordercolor="#666666"
     borderopacity="1.0"
     inkscape:pageopacity="0.0"
     inkscape:pageshadow="2"
     inkscape:zoom="1.4"
     inkscape:cx="113.82802"
     inkscape:cy="846.03986"
     inkscape:document-units="px"
     inkscape:current-layer="layer1"
     showgrid="false"
     inkscape:window-width="1920"
     inkscape:window-height="1017"
     inkscape:window-x="-4"
     inkscape:window-y="-4"
     inkscape:window-maximized="1" />
  <metadata
     id="metadata3880">
    <rdf:RDF>
      <cc:Work
         rdf:about="">
        <dc:format>image/svg+xml</dc:format>
        <dc:type
           rdf:resource="http://purl.org/dc/dcmitype/StillImage" />
        <dc:title></dc:title>
      </cc:Work>
    </rdf:RDF>
  </metadata>
  <g
     inkscape:label="Layer 1"
     inkscape:groupmode="layer"
     id="layer1">
    <path
       id="path2997"
       d="m 471.64491,64.825544 -0.40625,-0.3575 c -0.89625,-0.7875 -2.22125,-1.3525 -3.34125,-1.75 -1.46875,-0.5225 -2.99375,-0.79375 -4.55625,-0.79375 -3.14,0 -5.80625,1.0125 -7.82625,3.40375 -2.22375,2.635 -2.91125,6.05 -2.91125,9.3925 0,3.18375 0.66875,6.465 2.9,8.9 2.15375,2.3625 5.15,3.15125 8.30125,3.15125 3.09,0 5.8875,-1.37625 8.2875,-3.1875 l 0.48,-0.3625 2.84375,6.1125 -0.34,0.2225 c -3.79125,2.49125 -8.33375,3.33375 -12.83375,3.33375 -4.7875,0 -8.9575,-1.54375 -12.3,-4.95125 -3.56625,-3.61125 -4.8675,-8.27625 -4.8675,-13.21875 0,-5.17375 1.34875,-10.0975 5.13125,-13.84375 3.7175,-3.69625 8.54,-5.10375 13.7575,-5.10375 2.13625,0 4.2425,0.46375 6.2375,1.19625 3.105,1.0475 3.48875,5.68375 1.44375,7.85625 z"
       style="fill:#7d868a;fill-rule:evenodd;stroke:none"
       inkscape:connector-curvature="0" />
    <path
       id="path2999"
       d="m 431.61491,75.039294 c -0.7775,-0.15625 -1.55875,-0.30625 -2.34125,-0.435 -0.42125,-0.0687 -0.96125,-0.16625 -1.38875,-0.16625 -2.72,0 -5.3575,0.61625 -7.4925,2.33375 -1.70375,1.3875 -2.8375,3.1175 -2.8375,5.33125 0,3.78125 2.4875,4.99125 6.05125,4.99125 3.3025,0 5.92375,-1.7725 8.00875,-4.15375 l 0,-7.90125 z m -0.0113,-5.44 c -0.17,-4.56 -2.21375,-7.3525 -7.27375,-7.3525 -3.22375,0 -6.3825,0.75125 -8.7425,3.0175 l -0.4687,0.45125 -3.12875,-6.0475 0.28875,-0.24125 c 1.37,-1.1425 3.29375,-1.94625 4.97625,-2.52875 2.06875,-0.70125 4.225,-1.125 6.41875,-1.125 3.9675,0 8.4225,0.68375 11.40375,3.48375 3.06,2.8575 3.7375,7.51375 3.7375,11.455 l 0,12.46875 c 0,2.145 0.46125,4.56375 2.5375,5.69375 l 0.2475,0.135 0,3.81375 -0.48125,0 c -1.95,0 -4.5575,-0.18625 -6.22125,-1.28875 -1.12,-0.72625 -1.92,-1.68875 -2.4375,-2.85875 -2.95375,3.125 -7.05,4.215 -11.37875,4.215 -2.97,0 -5.50625,-1.07375 -7.5975,-3.13625 -2.16625,-2.125 -3.19625,-4.7175 -3.19625,-7.7175 0,-3.875 1.81,-6.93875 4.88,-9.31875 3.5525,-2.7525 7.89625,-3.74375 12.355,-3.74375 1.3675,0 2.7575,0.25875 4.08125,0.625 z"
       style="fill:#7d868a;fill-rule:evenodd;stroke:none"
       inkscape:connector-curvature="0" />
    <path
       id="path3001"
       d="m 397.38116,62.313044 -8.55875,0 c -0.125,4.4275 -0.58125,8.8725 -1.52625,13.205 -0.775,3.555 -1.91875,7.225 -3.73,10.41375 -1.22125,2.12375 -2.94625,4.41125 -5.27125,5.45125 -2.09875,0.92625 -4.44375,1.24 -6.73,1.24 l -0.48125,0 0,-6.60625 0.48125,0 c 4.7875,0 6.88375,-4.8075 7.94625,-8.67625 1.31125,-4.80875 1.975,-9.75875 2.3975,-14.72 0.45625,-5.3475 4.67375,-6.17 6.91125,-6.17 l 15.83,0 0,35.785 -7.26875,0 0,-29.9225 z"
       style="fill:#7d868a;fill-rule:evenodd;stroke:none"
       inkscape:connector-curvature="0" />
    <path
       id="path3003"
       d="m 359.74991,62.601794 -14.52375,0 0,29.63375 c -4.73875,-0.2475 -7.29,-3.33 -7.29,-6.56625 l 0,-23.0525 c 0,-3.17375 2.3475,-6.16625 7.4,-6.16625 l 21.6825,0 0,35.785 -7.26875,0 0,-29.63375 z"
       style="fill:#7d868a;fill-rule:evenodd;stroke:none"
       inkscape:connector-curvature="0" />
    <path
       id="path3005"
       d="m 322.67616,69.179294 -21.46625,24 c -0.465,0.51875 -2.115,0.69125 -2.115,0 l 0,-30.71125 c 0,-3.11625 3.7875,-6.02125 7.29125,-6.0175 l 0,23.06375 21.42,-24.0075 c 0.4675,-0.52375 2.12625,-0.695 2.12625,0 l 0,30.01875 0,6.71 -7.25625,0 0,-23.05625 z"
       style="fill:#7d868a;fill-rule:evenodd;stroke:none"
       inkscape:connector-curvature="0" />
    <path
       id="path3007"
       d="m 277.04866,86.839294 c 2.63625,0 4.8175,-0.8875 6.3925,-2.99375 1.76375,-2.3725 2.28375,-5.405 2.28375,-8.28125 0,-2.79875 -0.43125,-6.05 -2.24125,-8.32625 -1.59125,-2.0125 -3.8125,-2.7825 -6.3675,-2.7825 -2.84,0 -5.14625,1.05 -6.94,3.2125 -1.8925,2.28375 -2.69875,4.96625 -2.69875,7.89625 0,2.95625 0.66875,5.8425 2.6075,8.17125 1.79875,2.1475 4.14375,3.10375 6.96375,3.10375 z m -11.03625,-22.14875 c 1.25125,-1.66875 2.7675,-3.1075 4.605,-4.1975 2.28125,-1.3575 4.7575,-2.055 7.4275,-2.055 4.36625,0 8.3025,1.265 11.27,4.485 3.055,3.31625 4.0975,7.60875 4.0975,11.98625 0,4.78375 -1.195,9.34375 -4.46625,12.99125 -3.18375,3.55 -7.42875,4.99 -12.1925,4.99 -5.085,0 -9.37375,-1.75625 -12.505,-5.735 -3.42125,-4.3475 -4.45875,-9.9275 -4.45875,-15.3 0,-3.765 0.2875,-7.615 1.1325,-11.29625 0.65625,-2.815 1.6725,-5.71 3.3575,-8.1025 1.4975,-2.1175 3.41375,-3.82375 5.69125,-5.115 2.72125,-1.53375 5.915,-2.515 8.9625,-3.20375 l 6.09375,-1.36125 c 3.47875,-0.7775 6.34875,2.23875 7.32875,5.3675 l -0.4775,0.1025 c -3.33625,0.70875 -6.67,1.4225 -9.99875,2.1625 -1.74375,0.3875 -3.5125,0.77 -5.24,1.21875 -1.865,0.48375 -3.61125,1.25125 -5.21125,2.3125 -1.69125,1.10125 -2.87875,2.665 -3.71125,4.465 -0.87125,1.8825 -1.38,4.1325 -1.705,6.285 z"
       style="fill:#7d868a;fill-rule:evenodd;stroke:none"
       inkscape:connector-curvature="0" />
    <path
       id="path3009"
       d="m 239.46366,86.894294 c 2.79875,0 4.96125,-1.115 6.5175,-3.4 1.8475,-2.69375 2.38625,-6.07625 2.38625,-9.2625 0,-6.105 -1.51625,-12.44 -8.90375,-12.44 -2.77875,0 -4.97375,1.07625 -6.58,3.30875 -1.90375,2.6275 -2.45875,5.97375 -2.45875,9.13125 0,6.19375 1.535,12.6625 9.03875,12.6625 z m 0,-31.12125 c 4.75625,0 9.06125,1.385 12.1975,4.99625 3.265,3.76 4.3025,8.635 4.3025,13.4625 0,4.9225 -1.07125,9.91 -4.49125,13.6825 -3.1675,3.47875 -7.28875,4.97625 -12.00875,4.97625 -4.78125,0 -9.05875,-1.4325 -12.20625,-5.05125 -3.3075,-3.80125 -4.36125,-8.725 -4.36125,-13.6075 0,-4.90375 1.2225,-9.57875 4.56875,-13.32375 3.15875,-3.53625 7.22875,-5.135 11.99875,-5.135 z"
       style="fill:#7d868a;fill-rule:evenodd;stroke:none"
       inkscape:connector-curvature="0" />
    <path
       id="path3011"
       d="m 209.52116,63.706794 -10.1275,29.85 c -0.2475,0.73 -2.10125,0.7275 -2.355,0 l -10.425,-29.86625 -5.38,29.21125 c -3.86875,0 -6.60625,-3.575 -6.04875,-6.4425 l 7.11,-36.5425 c 0.3375,-1.73125 2.3325,-5.62125 4.69375,-5.6125 l 11.2025,33.66875 10.34625,-33.66875 c 2.59375,0.0125 4.4025,3.255 4.90625,5.68875 l 7.54625,36.4725 c 0.5875,2.84 -1.54375,6.41 -5.9625,6.43625 l -5.50625,-29.195 z"
       style="fill:#7d868a;fill-rule:evenodd;stroke:none"
       inkscape:connector-curvature="0" />
    <path
       id="path3015"
       d="m 160,44.162183 2.37125,0 0,50 -2.37125,0 0,-50 z"
       style="fill:#7d868a;fill-rule:evenodd;stroke:none"
       inkscape:connector-curvature="0" />
    <path
       id="path3017"
       d="m 143.28131,44.362183 0.0295,0 c 4.25311,7.354892 6.68918,15.893367 6.68918,24.99967 0,9.10697 -2.43607,17.64544 -6.68917,25.00033 l -0.0295,0 c -18.49203,0 -34.63989,-10.05619 -43.28132,-25.00033 8.64143,-14.943477 24.78929,-24.99967 43.28132,-24.99967 z"
       style="fill:#005379;fill-rule:evenodd;stroke:none"
       inkscape:connector-curvature="0" />
  </g>
</svg>
